<?xml version="1.0" standalone="no"?>
<!DOCTYPE svg PUBLIC "-//W3C//DTD SVG 1.1//EN" "http://www.w3.org/Graphics/SVG/1.1/DTD/svg11.dtd" >
<!--
2013-9-30: Created.
-->
<svg>
<metadata>
Created by iconfont
</metadata>
<defs>

<font id="iconfont" horiz-adv-x="1024" >
  <font-face
    font-family="iconfont"
    font-weight="500"
    font-stretch="normal"
    units-per-em="1024"
    ascent="896"
    descent="-128"
  />
    <missing-glyph />
    
    <glyph glyph-name="iconset0401" unicode="&#59160;" d="M512 853.333333C253.866667 853.333333 42.666667 644.266667 42.666667 384s211.2-469.333333 469.333333-469.333333c260.266667 0 469.333333 209.066667 469.333333 469.333333S772.266667 853.333333 512 853.333333zM386.133333 791.466667c-8.533333-10.666667-17.066667-21.333333-25.6-32 0-2.133333-2.133333-2.133333-2.133333-4.266667-17.066667-23.466667-32-51.2-44.8-81.066667 0-2.133333-2.133333-4.266667-2.133333-4.266667 0-2.133333-2.133333-4.266667-2.133333-6.4-25.6 12.8-49.066667 27.733333-70.4 44.8C279.466667 746.666667 330.666667 774.4 386.133333 791.466667zM204.8 680.533333c25.6-21.333333 53.333333-40.533333 87.466667-55.466667 0-2.133333-2.133333-4.266667-2.133333-4.266667-10.666667-32-19.2-68.266667-23.466667-104.533333 0-4.266667-2.133333-8.533333-2.133333-14.933333-2.133333-14.933333-4.266667-27.733333-4.266667-42.666667 0-6.4 0-10.666667-2.133333-17.066667 0-12.8 0-23.466667-2.133333-36.266667L85.333333 405.333333C91.733333 512 136.533333 608 204.8 680.533333zM85.333333 362.666667l170.666667 0c0-12.8 0-25.6 2.133333-36.266667 0-6.4 0-10.666667 2.133333-17.066667 2.133333-14.933333 2.133333-27.733333 4.266667-42.666667 0-4.266667 2.133333-8.533333 2.133333-14.933333 6.4-36.266667 14.933333-72.533333 23.466667-104.533333 0-2.133333 2.133333-4.266667 2.133333-4.266667-32-14.933333-61.866667-34.133333-87.466667-55.466667C136.533333 160 91.733333 256 85.333333 362.666667zM236.8 59.733333c21.333333 17.066667 44.8 32 70.4 44.8 0-2.133333 2.133333-4.266667 2.133333-6.4 0-2.133333 2.133333-4.266667 2.133333-4.266667 12.8-29.866667 27.733333-57.6 44.8-81.066667 0-2.133333 2.133333-2.133333 2.133333-4.266667 8.533333-10.666667 17.066667-21.333333 25.6-32C330.666667-6.4 279.466667 21.333333 236.8 59.733333zM490.666667-40.533333c-59.733333 12.8-110.933333 72.533333-145.066667 160 44.8 17.066667 93.866667 25.6 145.066667 27.733333L490.666667-40.533333zM490.666667 192c-57.6-2.133333-110.933333-12.8-160-29.866667-19.2 59.733333-29.866667 128-32 202.666667l192 0L490.666667 192zM490.666667 405.333333l-192 0c2.133333 74.666667 12.8 142.933333 32 202.666667 49.066667-17.066667 102.4-27.733333 160-29.866667L490.666667 405.333333zM490.666667 618.666667c-53.333333 2.133333-102.4 12.8-145.066667 27.733333 34.133333 89.6 87.466667 149.333333 145.066667 160L490.666667 618.666667zM938.666667 405.333333l-170.666667 0c0 12.8 0 25.6-2.133333 36.266667 0 6.4 0 10.666667-2.133333 17.066667-2.133333 14.933333-2.133333 27.733333-4.266667 42.666667 0 4.266667-2.133333 8.533333-2.133333 14.933333-6.4 36.266667-14.933333 72.533333-23.466667 104.533333 0 2.133333-2.133333 4.266667-2.133333 4.266667 32 14.933333 61.866667 34.133333 87.466667 55.466667C887.466667 608 932.266667 512 938.666667 405.333333zM787.2 708.266667c-21.333333-17.066667-44.8-32-70.4-44.8 0 2.133333-2.133333 4.266667-2.133333 6.4 0 2.133333-2.133333 4.266667-2.133333 4.266667-12.8 29.866667-27.733333 57.6-44.8 81.066667 0 2.133333-2.133333 2.133333-2.133333 4.266667-8.533333 10.666667-17.066667 21.333333-25.6 32C693.333333 774.4 744.533333 746.666667 787.2 708.266667zM533.333333 808.533333c59.733333-12.8 110.933333-72.533333 145.066667-160-44.8-17.066667-93.866667-25.6-145.066667-27.733333L533.333333 808.533333zM533.333333 576c57.6 2.133333 110.933333 12.8 160 29.866667 19.2-59.733333 29.866667-128 32-202.666667l-192 0L533.333333 576zM533.333333 362.666667l192 0c-2.133333-74.666667-12.8-142.933333-32-202.666667-49.066667 17.066667-102.4 27.733333-160 29.866667L533.333333 362.666667zM533.333333-40.533333 533.333333 149.333333c53.333333-2.133333 102.4-12.8 145.066667-27.733333C644.266667 32 593.066667-27.733333 533.333333-40.533333zM637.866667-23.466667c8.533333 10.666667 17.066667 21.333333 25.6 32 0 2.133333 2.133333 2.133333 2.133333 4.266667 17.066667 23.466667 32 51.2 44.8 81.066667 0 2.133333 2.133333 4.266667 2.133333 4.266667 0 2.133333 2.133333 4.266667 2.133333 6.4 25.6-12.8 49.066667-27.733333 70.4-44.8C744.533333 21.333333 693.333333-6.4 637.866667-23.466667zM819.2 87.466667c-25.6 21.333333-53.333333 40.533333-87.466667 55.466667 0 2.133333 2.133333 4.266667 2.133333 4.266667 10.666667 32 19.2 68.266667 23.466667 104.533333 0 4.266667 2.133333 8.533333 2.133333 14.933333 2.133333 14.933333 4.266667 27.733333 4.266667 42.666667 0 6.4 0 10.666667 2.133333 17.066667 0 12.8 0 23.466667 2.133333 36.266667l170.666667 0C932.266667 256 887.466667 160 819.2 87.466667z"  horiz-adv-x="1024" />

    
    <glyph glyph-name="h5e" unicode="&#58964;" d="M513.232572 94.975351c-4.230348 0-8.444323 0.75827-12.467963 2.293229l-185.809893 70.886467c-12.544711 4.787026-21.234627 16.373922-22.350031 29.780257l-6.889921 83.941807c-1.574868 19.2269 12.727882 36.09508 31.950689 37.671994 19.48989 1.638313 36.094056-12.734022 37.682227-31.963992l5.097088-62.005192 153.11833-58.414411 162.173566 58.526975 6.444782 149.767002L315.026348 375.459486c-18.438954 0-33.701566 14.340613-34.858926 32.741705l-13.095249 208.28272c-0.621147 9.632381 2.795673 19.084661 9.388834 26.109658 6.614651 7.028067 15.827477 11.019984 25.470091 11.019984l433.917644 0c19.293415 0 34.936697-15.636119 34.936697-34.929534 0-19.300578-15.642259-34.936697-34.936697-34.936697l-396.715347 0 8.69094-138.420583 370.835933 0c9.530051 0 18.651802-3.889587 25.222451-10.769274 6.592139-6.879688 10.102079-16.143679 9.685593-25.664519l-9.03477-209.603809c-0.607844-14.157441-9.699919-26.542516-23.048949-31.358195l-196.407252-70.892607C521.258363 95.661989 517.234723 94.975351 513.232572 94.975351zM513.232572-84.803175c-4.299933 0-8.578376 0.783853-12.650111 2.371L159.556461 50.065512c-12.860912 4.992711-21.580504 17.104563-22.236444 30.885428L103.095541 795.266761c0.184195 36.966936 30.948873 37.361933 63.513546 37.796838 91.086531 1.203408 364.468922-1.196245 364.489388-1.196245-0.791016 0 246.738567 2.378164 329.086064 1.196245 27.059286-0.403183 60.745503-0.890276 60.745503-36.129872l-34.209126-715.983811c-0.657986-13.762445-9.325389-25.836435-22.145369-30.859845L525.958408-82.410686C521.86416-84.014206 517.545808-84.803175 513.232572-84.803175zM206.001259 106.966453l307.188334-119.355365 304.830637 119.28885 31.407314 656.423297c-12.742209 0.119727-30.560016 0.211824-55.515385 0.211824-105.08536 0-262.721587-1.531889-262.770705-1.531889-0.670266 0-175.036525 1.531889-291.298436 1.531889-30.156834 0-50.960649-0.112564-65.342194-0.257873L206.001259 106.966453z"  horiz-adv-x="1024" />

    
    <glyph glyph-name="socialjavascriptoutline" unicode="&#59545;" d="M384 687.998l0-394.034c0-83.134-19.288-143.976-57.324-180.834-34.12-33.06-84.122-49.13-152.862-49.13-24.004 0-51.56 2.992-74.37 7.772l8.18 61.01c14.292-2.538 30.93-4.298 49.548-4.298 43.84 0 75.784 12.918 97.654 39.49C277.46 195.464 288 235.83 288 295.002L288 687.998 384 687.998M416 719.998l-160 0 0-424.996c0-105.16-36.064-134.522-98.824-134.522-29.41 0-55.896 5.042-76.5 12.126L64 48.192c29.4-10.124 74.518-16.192 109.814-16.192C317.91 32 416 99.742 416 293.96L416 719.998 416 719.998zM764.926 704c48.916 0 91.796-6.292 130.2-19.17l-19.162-64.124C848.74 631.716 810.892 642.58 762.992 642.58c-37.214 0-68.924-9.168-91.698-26.512-23.464-17.872-36.388-43.166-36.388-71.226 0-69.948 66.124-96.298 142.694-126.81l0.214-0.086 0.216-0.082c53.954-20.598 91.876-44.522 115.938-73.144C917.186 317.098 928 284.914 928 243.432c0-50.354-18.666-93.42-53.98-124.548C833.32 83.006 771.186 64.04 694.334 64.04c-56.104 0-109.396 12.854-145.23 27.958l15.186 63.206c35.158-14.496 83.764-28.764 138.876-28.764 40.56 0 73.258 8.956 97.182 26.612 25.614 18.9 39.714 47.394 39.714 80.238 0 30.696-12.082 55.844-36.938 76.888-20.314 17.206-49.602 32.096-94.934 48.272-53.72 19.808-94.718 43.894-121.868 71.59C557.844 459.09 544 492.342 544 531.692c0 48.298 19.662 90.202 56.86 121.182C641.02 686.322 697.752 704 764.926 704M764.926 736C610.04 736 512 648.004 512 531.692c0-100.166 75.502-162.88 185.282-203.33 79.4-28.316 110.784-53.616 110.784-95.078 0-45.512-36.278-74.85-104.896-74.85-63.726 0-121.578 21.28-160.788 42.51l0 0.042L512 74.546c37.278-21.276 106.882-42.51 182.334-42.51C875.708 32.04 960 129.14 960 243.432c0 97.1-53.916 159.8-170.556 204.326-86.278 34.382-122.54 53.59-122.54 97.084 0 34.4 31.376 65.738 96.086 65.738 63.692 0 107.488-21.414 133.01-34.582l38.25 128C894.25 721.56 840.376 736 764.926 736L764.926 736z"  horiz-adv-x="1024" />

    
    <glyph glyph-name="vuejs" unicode="&#59465;" d="M769.28 791.765333H613.888L512.554667 622.933333 410.88 791.722667l-112.896 0.042666H35.456L513.28-23.808 988.501333 791.765333z m-256.213333-646.4L184.405333 706.432h120.490667l208.426667-358.656 206.805333 358.698667h119.893333z"  horiz-adv-x="1024" />

    
    <glyph glyph-name="css" unicode="&#58990;" d="M263.008 736l-4.992-26.016-16-92-7.04-37.984H687.04l-10.016-58.016H224.992l-4.992-25.984-16-92-7.008-36.992h452l-22.976-130.016L458.976 160l-130.976 72 7.008 39.008 7.008 36.992H185.952l-4-26.016L160 160l-4.992-24 21.984-11.008 250.016-121.984 12.992-6.016 12.992 5.024 292.992 122.976 16 6.016 4 17.984L864 698.016 871.008 736z m52.992-64h478.016l-88-495.008-265.024-108.992-213.984 104 12.992 72h24.992l-8-46.016 20-10.976L441.984 96l14.016-8 15.008 7.008 196.992 90.976 15.008 7.04 2.976 16.96 33.024 183.04 6.976 37.984H274.016l4.032 27.008h452.992l4 26.976 21.984 122.016 7.008 36.992H312z"  horiz-adv-x="1024" />

    
    <glyph glyph-name="react" unicode="&#59201;" d="M364.928 788.48c-27.04 1.824-53.632-3.04-76.928-16.48-31.072-17.92-51.776-48.544-62.88-83.84-11.104-35.2-13.664-75.84-9.6-120.224 0.384-4.48 1.184-9.184 1.728-13.76-4.224-1.792-8.704-3.456-12.8-5.376-40.448-18.656-74.336-41.184-99.328-68.416C80.16 453.12 64 419.904 64 384c0-35.872 16.16-69.12 41.12-96.384 24.96-27.232 58.88-49.76 99.328-68.416 4.096-1.92 8.576-3.584 12.8-5.376-0.544-4.576-1.344-9.28-1.76-13.76-4.032-44.384-1.472-84.992 9.632-120.256 11.104-35.264 31.808-65.856 62.88-83.808 31.072-17.92 67.904-20.576 104-12.576 36.096 8 72.544 26.144 108.928 51.84 3.68 2.56 7.36 5.6 11.072 8.352 3.68-2.752 7.36-5.76 11.072-8.352 36.384-25.696 72.832-43.84 108.928-51.84 36.096-8 72.928-5.376 104 12.576 31.072 17.92 51.776 48.544 62.88 83.84 11.104 35.2 13.664 75.84 9.6 120.224-0.384 4.48-1.184 9.184-1.728 13.76 4.224 1.792 8.704 3.456 12.8 5.376 40.448 18.656 74.336 41.184 99.328 68.416C943.84 314.88 960 348.096 960 384c0 35.872-16.16 69.12-41.12 96.384-24.96 27.232-58.88 49.76-99.328 68.416-4.096 1.92-8.576 3.584-12.8 5.376 0.544 4.576 1.344 9.28 1.76 13.76 4.032 44.384 1.472 84.992-9.632 120.256-11.104 35.264-31.808 65.856-62.88 83.808-31.072 17.92-67.904 20.576-104 12.576-36.096-8-72.544-26.144-108.928-51.84-3.68-2.56-7.36-5.6-11.072-8.352-3.68 2.752-7.36 5.76-11.072 8.352-36.384 25.696-72.832 43.84-108.928 51.84a179.968 179.968 0 0 1-27.072 3.936z m-4.16-63.744c5.44-0.384 11.232-1.28 17.408-2.688 24.192-5.344 53.152-18.912 83.712-40.16a738.048 738.048 0 0 1-74.4-82.336 738.336 738.336 0 0 1-108.352-23.168c-3.136 37.056-0.448 68.928 6.976 92.544 7.648 24.192 19.04 39.04 33.888 47.648 11.136 6.4 24.384 9.408 40.736 8.16z m302.496 0c16.32 1.248 29.6-1.76 40.736-8.16 14.848-8.576 26.24-23.456 33.888-47.648 7.424-23.616 10.112-55.488 6.976-92.544a738.336 738.336 0 0 1-108.352 23.168 738.048 738.048 0 0 1-74.4 82.336c30.56 21.248 59.52 34.816 83.712 40.16 6.176 1.376 11.968 2.304 17.44 2.688zM512 641.312c11.232-10.4 22.464-21.952 33.696-34.048A947.776 947.776 0 0 1 512 608c-11.36 0-22.528-0.352-33.696-0.736 11.2 12.096 22.464 23.648 33.696 34.048zM512 544c30.88 0 60.8-1.824 89.568-4.864A846.688 846.688 0 0 0 650.56 464c15.424-26.72 28.8-53.536 40.576-80a846.624 846.624 0 0 0-40.576-80 846.688 846.688 0 0 0-48.992-75.136c-28.8-3.04-58.688-4.864-89.568-4.864-30.88 0-60.8 1.824-89.568 4.864A846.688 846.688 0 0 0 373.44 304c-15.424 26.72-28.8 53.536-40.576 80 11.744 26.464 25.152 53.28 40.576 80s31.968 51.744 48.992 75.136A846.72 846.72 0 0 0 512 544z m-176.512-19.2c-5.92-9.44-11.808-18.944-17.472-28.8a948.16 948.16 0 0 1-16.192-29.568 627.552 627.552 0 0 0-12.64 46.208c14.624 4.512 30.24 8.512 46.304 12.16z m353.024 0c16.064-3.648 31.68-7.648 46.304-12.16-3.392-14.944-7.776-30.464-12.64-46.208a948.128 948.128 0 0 1-16.192 29.568 948.736 948.736 0 0 1-17.472 28.8zM228.928 489.504c8.192-34.08 19.488-69.44 34.144-105.504a737.824 737.824 0 0 1-34.144-105.504c-33.632 15.84-59.904 34.144-76.608 52.384C135.2 349.568 128 366.848 128 384c0 17.152 7.2 34.432 24.32 53.12 16.704 18.24 42.976 36.544 76.608 52.384z m566.144 0c33.632-15.84 59.904-34.144 76.608-52.384 17.12-18.688 24.32-35.968 24.32-53.12 0-17.152-7.2-34.432-24.32-53.12-16.704-18.24-42.976-36.544-76.608-52.384A737.824 737.824 0 0 1 760.928 384c14.656 36.064 25.952 71.424 34.144 105.504zM512 480c-52.64 0-96-43.36-96-96s43.36-96 96-96 96 43.36 96 96-43.36 96-96 96z m0-64c18.048 0 32-13.952 32-32 0-18.048-13.952-32-32-32-18.048 0-32 13.952-32 32 0 18.048 13.952 32 32 32z m-210.176-114.432c5.216-9.856 10.496-19.712 16.16-29.568 5.696-9.856 11.584-19.36 17.504-28.8-16.064 3.648-31.68 7.648-46.304 12.16 3.392 14.944 7.776 30.464 12.64 46.208z m420.352 0c4.864-15.744 9.28-31.264 12.64-46.208-14.624-4.512-30.24-8.512-46.304-12.16 5.92 9.44 11.808 18.944 17.504 28.8 5.664 9.856 10.944 19.712 16.16 29.568zM279.136 191.616c33.6-9.92 69.856-17.856 108.352-23.168 23.904-30.72 48.96-58.176 74.4-82.336-30.56-21.248-59.52-34.816-83.712-40.16-24.736-5.504-43.328-3.072-58.176 5.472-14.848 8.576-26.24 23.456-33.888 47.648-7.424 23.616-10.112 55.488-6.976 92.544z m465.728 0c3.136-37.056 0.448-68.928-6.976-92.544-7.648-24.192-19.04-39.04-33.888-47.648-14.848-8.544-33.44-10.976-58.176-5.472-24.192 5.344-53.152 18.912-83.712 40.16a738.048 738.048 0 0 1 74.4 82.336 738.336 738.336 0 0 1 108.352 23.168z m-266.56-30.88c11.168-0.384 22.336-0.736 33.696-0.736s22.528 0.352 33.696 0.736c-11.2-12.096-22.464-23.648-33.696-34.048a626.72 626.72 0 0 0-33.696 34.048z"  horiz-adv-x="1024" />

    
    <glyph glyph-name="chuxingtianshu" unicode="&#58932;" d="M817.859375-37.875L206.140625-37.875C142.859375-37.875 90.125 14.859375 90.125 78.140625L90.125 637.125C90.125 700.40625 142.859375 753.140625 206.140625 753.140625l42.1875 0c15.8203125 0 26.3671875-10.546875 26.3671875-26.3671875L274.6953125 647.671875c0-31.640625 21.09375-52.734375 52.734375-52.734375s52.734375 21.09375 52.734375 52.734375L380.1640625 726.7734375C374.890625 742.59375 390.7109375 753.140625 401.2578125 753.140625l210.9375 0c15.8203125 0 26.3671875-10.546875 26.3671875-26.3671875L638.5625 647.671875c0-31.640625 21.09375-52.734375 52.734375-52.734375s52.734375 21.09375 52.734375 52.734375L744.03125 726.7734375c0 15.8203125 10.546875 26.3671875 26.3671875 26.3671875l47.4609375 0C881.140625 753.140625 933.875 700.40625 933.875 637.125l0-564.2578125C933.875 14.859375 881.140625-37.875 817.859375-37.875zM206.140625 700.40625C169.2265625 700.40625 142.859375 674.0390625 142.859375 637.125l0-564.2578125C142.859375 41.2265625 169.2265625 14.859375 206.140625 14.859375l616.9921875 0c31.640625 0 63.28125 26.3671875 63.28125 63.28125L886.4140625 637.125C881.140625 674.0390625 854.7734375 700.40625 817.859375 700.40625l-21.09375 0 0-52.734375c0-58.0078125-47.4609375-105.46875-105.46875-105.46875s-105.46875 47.4609375-105.46875 105.46875L585.828125 700.40625l-158.203125 0 0-52.734375c0-58.0078125-47.4609375-105.46875-105.46875-105.46875s-105.46875 47.4609375-105.46875 105.46875L216.6875 700.40625 206.140625 700.40625zM322.15625 621.3046875C311.609375 621.3046875 295.7890625 631.8515625 295.7890625 647.671875L295.7890625 779.5078125C295.7890625 795.328125 311.609375 805.875 322.15625 805.875s26.3671875-10.546875 26.3671875-26.3671875L348.5234375 647.671875C348.5234375 631.8515625 337.9765625 621.3046875 322.15625 621.3046875zM691.296875 621.3046875c-15.8203125 0-26.3671875 10.546875-26.3671875 26.3671875L664.9296875 779.5078125c0 15.8203125 10.546875 26.3671875 26.3671875 26.3671875s26.3671875-10.546875 26.3671875-26.3671875L717.6640625 647.671875C717.6640625 631.8515625 707.1171875 621.3046875 691.296875 621.3046875zM248.328125 463.1015625l79.1015625 0 0-79.1015625-79.1015625 0 0 79.1015625ZM380.1640625 463.1015625l79.1015625 0 0-79.1015625-79.1015625 0 0 79.1015625ZM512 463.1015625l79.1015625 0 0-79.1015625-79.1015625 0 0 79.1015625ZM643.8359375 463.1015625l79.1015625 0 0-79.1015625-79.1015625 0 0 79.1015625ZM248.328125 331.265625l79.1015625 0 0-79.1015625-79.1015625 0 0 79.1015625ZM380.1640625 331.265625l79.1015625 0 0-79.1015625-79.1015625 0 0 79.1015625ZM512 331.265625l79.1015625 0 0-79.1015625-79.1015625 0 0 79.1015625ZM643.8359375 331.265625l79.1015625 0 0-79.1015625-79.1015625 0 0 79.1015625ZM248.328125 199.4296875l79.1015625 0 0-79.1015625-79.1015625 0 0 79.1015625ZM380.1640625 199.4296875l79.1015625 0 0-79.1015625-79.1015625 0 0 79.1015625Z"  horiz-adv-x="1024" />

    
    <glyph glyph-name="xunzhang" unicode="&#59286;" d="M345.6 236.79999999999995l-22.4-211.2 169.6 96c9.6 6.4 22.4 6.4 32 0l169.6-96-22.4 211.2c-48-28.8-105.6-44.8-166.4-44.8s-108.8 16-160 44.8z m-57.6 48c-57.6 57.6-96 137.6-96 227.2 0 176 144 320 320 320s320-144 320-320c0-89.6-35.2-169.6-96-227.2l32-313.6c3.2-25.6-25.6-44.8-48-32l-208 118.4-208-118.4c-22.4-12.8-51.2 6.4-48 32l32 313.6z m224-28.8c140.8 0 256 115.2 256 256s-115.2 256-256 256-256-115.2-256-256 115.2-256 256-256z"  horiz-adv-x="1024" />

    
    <glyph glyph-name="dianboxindiantu" unicode="&#58919;" d="M916.37333333 310.50666666999996c-27.2 0-50.66666667-14.82666667-63.36-36.8H718.50666667l-106.45333334 212.8L530.13333333 186.13333333000003l-55.04 605.65333334-72.10666666 6.18666666-139.73333334-524.05333333H34.13333333v-73.49333333h285.54666667l100.90666667 378.56 54.72-602.34666667 72.10666666-6.29333333 84.90666667 311.46666666 40.64-81.28h180.05333333c12.69333333-21.86666667 36.16-36.8 63.36-36.8 40.53333333 0 73.49333333 32.96 73.49333334 73.49333334 0 40.53333333-32.96 73.28-73.49333334 73.28z"  horiz-adv-x="1024" />

    
    <glyph glyph-name="js" unicode="&#59516;" d="M707.072 247.55200000000002c-15.36-8.704-36.864-13.312-63.488-13.312-30.208 0-52.224 5.632-66.56 15.872-15.872 11.776-25.6 31.744-29.696 59.392h-59.392c2.56-46.592 19.456-80.384 50.176-101.888 25.088-17.408 60.416-26.112 105.472-26.112 46.592 0 82.944 9.728 108.544 28.16 25.6 18.944 38.4 45.056 38.4 77.824 0 33.792-15.872 59.904-47.616 78.848-14.336 8.192-46.08 20.48-95.744 35.84-33.792 10.752-54.784 18.432-62.464 22.528-17.408 9.216-25.6 22.016-25.6 37.376 0 17.408 7.168 30.208 22.528 37.888 12.288 6.656 29.696 9.728 52.736 9.728 26.624 0 47.104-4.608 60.416-14.848 13.312-9.728 23.04-26.112 28.16-48.64h59.392c-3.584 39.936-18.432 69.632-44.032 88.576-24.064 17.92-57.856 26.624-100.864 26.624-39.424 0-71.68-8.704-97.28-26.624-27.648-18.432-40.96-44.032-40.96-76.288s13.824-56.832 41.984-73.728c10.752-6.144 38.912-16.384 83.968-30.72 40.448-12.288 64-20.48 71.168-24.064 22.528-11.264 34.304-26.624 34.304-46.08 0-15.36-8.192-27.136-23.552-36.352zM884.864 672.16L557.984 861.44a101.088 101.088 0 0 1-101.056 0L130.24 672.1279999999999a101.12 101.12 0 0 1-50.24-87.2v-401.312c0-36.384 19.712-70.016 51.424-87.872l117.792-66.176c1.28-0.704 2.688-0.768 4.032-1.312 15.648-7.616 34.272-11.52 57.472-11.52 42.496 0 75.36 15.52 94.816 37.024 17.408 20.48 26.112 51.2 26.112 93.184V554.24h-59.904v-405.248c0-26.112-4.608-45.056-13.824-56.832-9.216-11.776-24.064-17.92-44.032-17.92-2.688 0-18.656 4.096-31.2 9.408l-0.16 0.032c-0.736 0.48-1.184 1.248-1.952 1.664l-117.76 66.176A36.96 36.96 0 0 0 144 183.64800000000002v401.28c0 13.088 7.04 25.28 18.336 31.84l326.656 189.28a36.8 36.8 0 0 0 36.896 0l326.88-189.28c11.328-6.592 18.368-18.784 18.368-31.872V182.39999999999998c0-12.864-6.88-24.96-17.92-31.552L537.472-37.823999999999955a36.8 36.8 0 0 0-36.896-0.512l-67.168 37.76a32 32 0 1 1-31.392-55.808l67.2-37.76a100.832 100.832 0 0 1 101.056 1.376l315.744 188.672a101.216 101.216 0 0 1 49.088 86.496V584.928a100.992 100.992 0 0 1-50.24 87.232z"  horiz-adv-x="1024" />

    
    <glyph glyph-name="biaoqian" unicode="&#58920;" d="M125.88302612 293.72781370999996c-29.07888794 29.10360718-29.07888794 76.26461792 0 105.37316895l368.07522582 386.63360596a34.00543213 34.00543213 0 0 0 25.10321045 7.45614624l367.57012941 0.16644287c19.89074708-1.60839845 35.46551513-17.78302001 36.32244872-37.72073364l0.39303589-345.6713562a32.31875611 32.31875611 0 0 0-8.05023193-26.40838622L528.9367981-3.921478259999958a74.54910278 74.54910278 0 0 0-52.71130372-21.83532716c-19.77539065 0-38.73504638 7.85742189-52.71295165 21.83532716L125.88302612 293.72781370999996z m52.70306396 79.03729249c-14.53408813-14.55880737-14.52502442-38.13848877 0.02142335-52.68411255l271.27386474-271.29611206a37.28237915 37.28237915 0 0 1 52.72366334 0l365.27947997 358.04992676-0.14831543 330.5744934-351.11865234-0.12771606-338.03146363-364.49917602v-0.01730347z m104.08776855-12.89437867c-10.5954895 10.96710205-10.44552612 28.40487673 0.33865358 39.18823242 10.78335571 10.78335571 28.22113037 10.93249513 39.18823242 0.33618165l197.68057251-197.67562866c10.5954895-10.97039796 10.44140625-28.40487673-0.34194947-39.18823242-10.78335571-10.78335571-28.21618652-10.93661499-39.18740845-0.34112549L282.67385863 359.87072753999996z m388.83526613 97.86016846c-46.32055664 0-83.86495972 37.54605102-83.86495974 83.86166383 0 46.32055664 37.54440307 83.86660766 83.86495974 83.86660766 46.31561279 0 83.86660766-37.54605102 83.86660766-83.86660766 0-46.31478883-37.55099488-83.86166382-83.86660766-83.86166383z m0 111.8199463c-15.44046021 0-27.95581055-12.51535034-27.95581055-27.95745851 0-15.4371643 12.51452636-27.95251466 27.95581055-27.95251464 15.43798828 0 27.95333861 12.51535034 27.95333862 27.95251464 0 15.44128419-12.51535034 27.95745849-27.95333862 27.95745851z m0 0"  horiz-adv-x="1024" />

    
    <glyph glyph-name="liaotian" unicode="&#59202;" d="M368.31530761 149.06835937000005l13.1011963-5.43823242c49.29016114-20.61584473 104.31518555-31.54174805 161.41662598-31.54174804 193.15612793 0 346.06933594 124.28833008 346.06933593 271.91162109s-152.91320801 271.91162109-346.06933593 271.91162109c-193.10668945 0-346.06933594-124.28833008-346.06933595-271.91162109 0-52.9486084 19.47875977-103.87023926 55.96435548-147.82104492l20.12145995-24.274292-40.39123535-85.18249511 135.8569336 22.3461914zM147.32531738 62.64990234000004l67.33520509 141.93786622C172.19287109 255.80603026999995 147.32531738 317.5546875 147.32531738 384c0 177.48413086 177.08862305 321.35009766 395.50781251 321.35009766s395.5078125-143.8659668 395.50781249-321.35009766-177.08862305-321.35009766-395.50781249-321.35009766a468.9239502 468.9239502 0 0 0-180.45043946 35.34851075l-215.05737304-35.34851075zM347.20507812 334.56152344a49.43847656 49.43847656 0 1 0 1e-8 98.87695312 49.43847656 49.43847656 0 0 0 0-98.87695312z m197.75390626 0a49.43847656 49.43847656 0 1 0-1e-8 98.87695312 49.43847656 49.43847656 0 0 0 0-98.87695312z m197.75390624 0a49.43847656 49.43847656 0 1 0 1e-8 98.87695312 49.43847656 49.43847656 0 0 0 0-98.87695312z"  horiz-adv-x="1088" />

    
    <glyph glyph-name="liwu" unicode="&#59936;" d="M898.897 633.49H718.143c11.12 18.983 16.86 40.91 16.86 62.332 0 56.446-38.85 113.586-113.166 113.586-34.351 0-63.551-11.962-86.804-35.59-12.486-12.657-21.988-27.814-29.431-43.707-7.273 15.872-16.608 30.988-28.885 43.643-23.042 23.673-52.096 35.655-86.426 35.655-44.022 0-70.574-19.635-85.102-36.118-18.1-20.518-28.065-48.015-28.065-77.468 0-21.423 5.76-43.35 16.882-62.333H125.36c-14.926 0-27.015-12.11-27.015-27.036v-245.693c0-14.927 12.088-27.036 27.015-27.036h36.685v-346.077c0-14.928 12.088-27.037 27.014-27.037H835.197c14.928 0 27.016 12.109 27.016 27.037V333.72299999999996h36.684c14.927 0 27.014 12.109 27.014 27.036V606.452c0 14.927-12.087 27.037-27.014 27.037zM573.547 735.89c12.888 13.097 28.675 19.488 48.29 19.488 43.641 0 59.137-32.08 59.137-59.557 0-16.524-5.55-32.46-15.243-43.707-10.615-12.34-25.332-18.605-43.79-18.626l-86.236 0.693c3.281 31.47 13.099 76.608 37.842 101.71z m-242.373-40.07c0 16.271 5.151 31.073 14.569 41.73 10.407 11.815 25.395 17.828 44.548 17.828 19.404 0 34.96-6.286 47.575-19.214 24.47-25.08 33.805-70.87 36.728-102.676H390.292c-46.671 0-59.118 39.186-59.118 62.333z m-178.8-116.383H410.79v-191.665H152.375V579.438z m63.7-245.715h194.714v-319.065H216.075V333.72299999999996z m248.764-319.065v564.78h94.583v-564.78h-94.583z m343.326 0H613.47V333.72299999999996h194.694v-319.065z m63.699 373.115H613.47V579.438H871.863v-191.665z"  horiz-adv-x="1024" />

    
    <glyph glyph-name="zan2" unicode="&#58880;" d="M509.8 730.9c14.3 0 28.5-4.7 40.1-13.2 11.9-8.7 20.4-20.8 24.7-35 0.5-1.5 1-3 1.5-4.4 4.7-21 7.1-42.6 7.1-64.2 0-20.7-2.2-41.4-6.5-61.7-4-18.9 0.7-38.6 12.8-53.6 12.2-15 30.4-23.7 49.7-23.7h133.2c2.8-0.6 5.7-1 8.6-1.2 21.4-1.5 41.2-13.1 52.9-31.1 6.8-10.9 10-23.5 9.2-36.3-0.1-1.3-0.1-2.6-0.1-3.8v-1.6c0-1.3 0-2.5 0.1-3.8l-69.8-301.8-0.6-0.9c-1.5-2.1-2.9-4.4-4.2-6.7-5.2-9.7-12.9-18-22.2-24-11.2-7-24.1-10.8-37.3-10.9H306.7V460.8C386.3 493.7 440 570.5 442.5 658c0.1 3.6-0.1 7.2-0.6 10.8 1.2 29.4 22.5 54.5 51.7 60.1 0.5 0.1 1.1 0.2 1.6 0.3 4.8 1.2 9.7 1.7 14.6 1.7m0 64c-9.4 0-18.9-1-28.4-3.1-60.2-11.6-103.6-64.3-103.6-125.6 0.1-2.2 0.3-4.3 0.7-6.4-1.9-67.1-46.4-125.5-110.7-145-14.8-4.5-25-18.1-25.1-33.6v-456.8c0.2-9.6 4.1-18.7 11-25.3 6.7-6.5 15.7-10.1 25-10.1h430.8c25.3 0.1 50 7.4 71.4 20.9 18.5 11.9 33.8 28.2 44.2 47.6l1 1.4c3.7 5.3 6.6 11.1 8.6 17.3 0.3 0.9 0.7 1.7 0.7 2.6l70.5 305c1.2 5.7 1.7 11.5 1.3 17.3v1.6c1.6 26.3-5.1 52.3-19.2 74.6-22.7 35.2-60.7 57.7-102.6 60.5-2.7 0.6-5.5 1.1-8.3 1.3H639.4c5.3 24.7 7.9 49.9 7.9 75.2-0.1 27.1-3.2 54.1-9.3 80.6-0.5 2.2-1.2 4.3-2.1 6.4-17.1 56.5-69.2 93.6-126.1 93.6zM149.9-7.7000000000000455c-17.7 0-32 14.3-32 32V459c0 17.7 14.3 32 32 32s32-14.3 32-32v-434.7c0-17.6-14.3-32-32-32z"  horiz-adv-x="1024" />

    
    <glyph glyph-name="changyongicon-" unicode="&#58903;" d="M512 626.72592555a430.59579221 430.59579221 0 0 0 385.44876999-242.72592555 2.66998557 2.66998557 0 0 0 0-1.94180779A428.16853333 428.16853333 0 0 0 126.55123001 384a2.66998557 2.66998557 0 0 0 0 1.94180779A430.59579221 430.59579221 0 0 0 512 626.72592555m0 48.54518556A476.47099221 476.47099221 0 0 1 82.86056334 406.08805888a50.48699221 50.48699221 0 0 1 0-44.17611776 476.7137189 476.7137189 0 0 1 858.27887332 0 50.48699221 50.48699221 0 0 1 0 44.17611776A476.47099221 476.47099221 0 0 1 512 675.27111111zM512 481.09036999a97.09036999 97.09036999 0 1 0-97.09036999-97.09036999 97.09036999 97.09036999 0 0 0 97.09036999 97.09036999m0 48.54518556a145.63555555 145.63555555 0 1 1 145.63555555-145.63555555 145.63555555 145.63555555 0 0 1-145.63555555 145.63555555z"  horiz-adv-x="1024" />

    
    <glyph glyph-name="tubiao-" unicode="&#58902;" d="M914.83441936 602.3109341300001c-19.98767091 41.06275397-54.65540583 86.85057264-97.63407645 128.92306646s-89.47848533 75.78227042-130.96843694 94.88965531c-60.48082805 27.87140898-90.33288059 16.19467378-104.72814616 1.48871901-14.39526558-14.70595476-25.43767703-44.80396958 3.70237944-104.67636464 19.98767091-41.06275397 54.65540583-86.85057264 97.63407645-128.92306646s89.47848533-75.78227042 130.96843694-94.88965531c26.79694222-12.34989511 47.57428148-16.93256059 63.66539219-16.9325606 20.23363318 0 33.04956208 7.24941431 41.06275399 15.44384158 14.39526558 14.70595476 25.43767703 44.80396958-3.70237946 104.67636465z m-22.51202054-79.00567072c-9.2947848-9.50191091-38.4218959-2.25249659-63.16052229 9.15238557-37.748736 17.39859437-80.5979528 48.57107595-120.6509669 87.7826402-40.04006875 39.21156425-72.11872711 81.38762114-90.30698982 118.76094104-11.92269748 24.4926641-19.7805448 53.45148524-10.48576 62.94045076 3.0033288 3.0680557 8.06497343 4.38848475 14.38232019 4.38848475 13.2560719 0 32.01393147-5.81247683 48.76525669-13.54087032 37.748736-17.39859437 80.5979528-48.57107595 120.65096692-87.78264021 40.04006875-39.21156425 72.11872711-81.38762114 90.30698982-118.76094103 11.93564286-24.47971872 19.79349017-53.43853985 10.49870539-62.94045076zM823.77659733 453.30957906L506.82184691 129.58439348000002c-16.6348168-16.9972875-42.07249383-21.33399072-63.26408533-10.79644918-33.94279348 16.88077906-84.63691219 46.99173925-133.3244966 94.6695838-49.67143348 48.63580286-79.41992297 101.51769125-95.61459673 137.29872908-9.34656631 20.64788543-5.11342617 44.48033502 10.79644918 60.72679032L539.1853037 731.94599664c7.09406973 7.23646894 6.9646159 18.86142261-0.27185303 25.94254697-7.24941431 7.09406973-18.86142261 6.9646159-25.94254697-0.27185304L199.20071743 437.15374143c-26.56392533-27.13352217-33.6321043-66.99235555-18.00702735-101.53063663 17.48921205-38.6549128 49.63259733-95.76994133 103.36888098-148.39292208 52.10516543-51.01775328 106.34631902-83.25175625 142.65811753-101.31056514 12.94538272-6.4338552 26.80988761-9.55369245 40.55788405-9.55369244 23.9748488 0 47.58722686 9.50191091 65.25767427 27.54777441L850.00394272 427.63888514c7.09406973 7.23646894 6.9646159 18.86142261-0.27185303 25.94254696-7.24941431 7.09406973-18.86142261 6.9646159-25.95549236-0.27185304zM443.35063547 58.760204639999984l-294.04142302-31.26309925c-5.83836761-0.62137837-11.58611753 1.37221057-15.78042154 5.47589688a19.49962998 19.49962998 0 0 0-5.81247683 15.66391309l25.03637017 294.63691061c0.85439525 10.09739852-6.62803595 18.97793106-16.72543447 19.83232633-10.1103439 0.88028603-18.97793106-6.62803595-19.83232631-16.72543447l-25.03637019-294.63691063c-1.4239921-16.79016139 4.66033778-33.19196128 16.71248909-44.98520493 10.60226845-10.38219694 24.67389947-16.06521995 39.31512732-16.06521996 1.99358894 0 4.00012325 0.10356306 6.00665756 0.32363458l294.04142302 31.26309926c10.07150775 1.07446676 17.37270361 10.1103439 16.31118223 20.18185166-1.07446676 10.07150775-10.12328928 17.35975822-20.19479703 16.29823683zM316.45999408 349.56528197c3.53408948-3.26223645 7.98730114-4.8674639 12.44051278-4.86746389 4.94513619 0 9.86438163 1.98064355 13.48908879 5.90309451l230.33719466 249.53519724c6.87399822 7.44359506 6.40796445 19.05560336-1.03563061 25.92960158-7.44359506 6.87399822-19.05560336 6.40796445-25.92960157-1.03563061L315.42436347 375.48193817000003c-6.87399822-7.44359506-6.40796445-19.04265797 1.03563061-25.9166562zM438.48317155 224.79768335999995c3.53408948-3.26223645 7.98730114-4.8674639 12.4405128-4.86746389 4.94513619 0 9.86438163 1.98064355 13.48908879 5.9030945l230.33719467 249.53519723c6.87399822 7.44359506 6.40796445 19.05560336-1.03563063 25.9296016-7.44359506 6.87399822-19.05560336 6.40796445-25.92960157-1.03563063L437.44754094 250.72728494c-6.87399822-7.45654045-6.40796445-19.05560336 1.03563061-25.92960158zM154.60387397 83.53766716999996l30.90062855-30.88768317c3.58587102-3.58587102 8.27209955-5.37233383 12.97127348-5.37233383s9.38540247 1.78646282 12.97127348 5.37233383c7.15879664 7.17174203 7.15879664 18.78375031 0 25.94254697l-30.90062854 30.88768316c-7.17174203 7.17174203-18.78375031 7.15879664-25.94254697 0-7.15879664-7.15879664-7.15879664-18.78375031 0-25.94254696z"  horiz-adv-x="1024" />

    
    <glyph glyph-name="RectangleCopy" unicode="&#59043;" d="M518.83516208 335.27357986000004c-131.93934105 0-239.28245453 103.82196978-239.28245453 231.46344297 0 46.49981511 14.18813986 91.39440238 41.11453631 129.76451553C365.19936 760.19282132 439.35051261 798.25224651 518.83516208 798.25224651c79.38108682 0 153.48045748-37.95586253 198.06435555-101.59536356 9.42423822-13.46319762 17.29503171-27.75490014 23.56059614-42.56441836a25.89076502 25.89076502 0 1 0-47.74257066-20.19479704 178.74984414 178.74984414 0 0 1-18.22709926 33.0366175C639.58969245 716.74811733 581.38725095 746.47071645 518.83516208 746.47071645c-62.65565275 0-120.85809303-29.77437984-155.86240831-79.63999528a174.08950636 174.08950636 0 0 1-31.63851495-100.04191762c0-99.10985008 84.09320653-179.73369363 187.44914132-179.73369363 76.94735527 0 145.29897601 44.22142695 173.9859437 112.62482963a25.89076502 25.89076502 0 0 0 47.74257186-20.03945245c-36.86845038-87.71791289-123.8096403-144.36690845-221.67673362-144.36690724M259.35791051 243.87917747999995c-60.58439111 0-109.77684502-49.86561422-109.77684503-111.17494637C149.52928355 71.39489776999994 198.72173868 21.529283549999946 259.30612978 21.529283549999946h505.28417777C825.27826132 21.529283549999946 874.47071645 71.39489776999994 874.47071645 132.70423111000002c0 61.30933214-49.19245392 111.17494636-109.77684623 111.17494637H259.30612978zM764.69387022-30.252246509999964H259.35791051C170.29367823-30.252246509999964 97.79953422 42.86327467000001 97.79953422 132.70423111000002 97.74775349 222.54518636 170.2418963 295.66070875 259.30612978 295.66070875h505.28417777C853.7581037 295.66070875 926.25224651 222.54518636 926.25224651 132.70423111000002 926.25224651 42.86327467000001 853.7581037-30.252246509999964 764.69387022-30.252246509999964z"  horiz-adv-x="1024" />

    
    <glyph glyph-name="RectangleCopy1" unicode="&#59117;" d="M515.5437989 648.59325667V385.91525888a24.27259221 24.27259221 0 0 1 24.27259221-24.27259222c0.48545223 0 0.82526777 0.24272555 1.26217444 0.24272555 0.48545223 0 0.77672334-0.24272555 1.26217557-0.24272555h260.20219221a24.27259221 24.27259221 0 0 1 0 48.54518557h-238.45395V648.59325667a24.27259221 24.27259221 0 0 1-48.54518443 0M925.36225223 381.7889189a24.41822777 24.41822777 0 0 1-25.7289489-22.76769224C887.88536889 167.65610665999998 728.2688 17.748574429999962 536.27259221 17.748574429999962 335.48970667 17.748574429999962 172.18370333 181.05457778000005 172.18370333 381.83746332c0 191.94766222 149.90753223 351.56423111 341.32119779 363.36071111A24.27259221 24.27259221 0 0 1 510.54364445 793.64627C293.54666667 780.29634332 123.6385189 599.3684389 123.6385189 381.83746332 123.6385189 154.30618112000002 308.74131001-30.796609999999987 536.27259221-30.796609999999987c217.57952 0 398.45888 169.95669333 411.80880669 386.90512555a24.27259221 24.27259221 0 0 1-22.71914667 25.68040335M854.53482667 558.83320888a24.27259221 24.27259221 0 1 1 42.42849223 23.44732445 400.01232555 400.01232555 0 0 1-27.86493668 43.49648555 24.22404779 24.22404779 0 1 1-39.07887445-28.73874888c8.93231445-12.23338667 17.13644999-25.00076999 24.5153189-38.25360668M888.46791111 474.55876778c2.08744334-8.05850112 3.88361443-16.21409223 5.48560555-24.4182289a24.27259221 24.27259221 0 0 1 47.71991779 9.02940444 408.99318557 408.99318557 0 0 1-6.31087445 27.71930112 24.22404779 24.22404779 0 1 1-46.94319445-12.33047666M730.79315001 689.71102776c12.86447445-8.10704555 25.19495111-17.08790557 36.89433998-26.69985109a24.22404779 24.22404779 0 0 1 34.12726556 3.39816221 24.27259221 24.27259221 0 0 1-3.30107221 34.17581112 443.21754112 443.21754112 0 0 1-41.74886001 30.19510443 24.27259221 24.27259221 0 1 1-25.97167332-41.06922667M604.57566777 739.51838776c15.04900779-2.86416555 29.7581989-6.65068999 44.0790289-11.16539221a24.32113778 24.32113778 0 0 1 14.9033711 46.16647111 409.04172999 409.04172999 0 0 1-49.95299556 12.67029334 24.22404779 24.22404779 0 1 1-9.02940444-47.67137224"  horiz-adv-x="1024" />

    
    <glyph glyph-name="github" unicode="&#59487;" d="M143.89999999 240.45000000000005c27.44999999 0.45 48.6-14.85 66.60000002-33.3 15.75-16.2 29.25-34.2 43.2-51.75 29.25-37.35 68.4-43.20000001 111.59999998-34.65 6.75 1.35000001 13.95 12.15 16.2 20.25 4.05 13.50000001 2.70000001 28.8 6.75000001 41.85 6.75 21.15-3.15 29.25-20.7 34.2-9.90000001 2.70000001-20.25 5.85-29.69999999 9.45000001-93.6 34.65-135.90000001 107.10000001-149.85000001 201.59999998-10.8 72.90000001-3.15 141.30000001 40.95 203.4 4.05 5.4 3.6 15.75 1.8 22.95000001-10.8 44.10000001-4.95 85.95 12.14999999 127.8 6.30000001 15.75 15.75 21.6 32.4 20.7 42.75-2.25 79.65-20.25 114.75000001-41.85000001 14.85-9.45 28.35-12.15 46.35-8.54999999 66.15 13.95 132.30000002 13.50000001 198.89999999-0.45000001 9.45-2.25 22.50000001 0.45 31.05000001 5.85000001 36.90000001 22.05 74.70000002 41.4 118.34999999 45.9 20.70000001 2.25 32.4-5.4 38.70000001-25.2 12.15-39.15 16.65-78.75 10.35-119.7-1.35000001-9.90000001 1.35000001-22.95 7.2-31.05000001 69.75-99.90000001 41.4-266.85-23.4-340.19999998-30.6-34.65-70.65-54.90000001-114.3-68.85000001-31.50000001-10.35-29.70000001-10.8-25.65-42.75000001 4.50000001-33.75 4.50000001-68.4 5.4-103.04999999 0.90000001-27.90000001 0.45-55.35 0-83.25 0-17.55 0-36.45-24.30000001-38.70000001-17.10000002-1.35000001-25.65 11.25-25.64999999 39.6-0.45 49.50000001-0.90000001 99 0 148.50000002 0.45 25.2-6.75 46.8-23.4 66.14999999-22.50000001 26.55-12.6 47.70000001 22.04999999 55.8 36 8.55 74.70000002 15.30000001 106.2 33.74999999 78.75 45.90000002 95.4 123.75 92.25000002 208.35000001-1.35000001 39.15-15.30000001 74.70000002-40.50000001 105.3-11.25 13.50000001-11.25 27-8.55000001 44.1 4.05 24.75 4.05 50.4 3.6 75.60000001-0.45 16.2-12.15 22.50000001-27 15.29999999-24.75-12.6-48.15-27.44999999-73.34999999-38.7-11.25-5.4-25.65-9.45-36.9-6.75000001-75.15 19.35-149.85 19.8-224.55000001-0.44999999-17.55-4.95-31.05-1.35000001-46.34999999 8.55-21.15 13.95-43.65 26.55-66.6 36.45-20.70000001 9.45-29.25 4.05-31.05000001-19.35000001-1.8-19.8-2.70000001-40.95 2.70000001-59.84999999 7.2-25.65 2.25-44.55-13.95-65.7-75.6-99.45-22.95-277.65 94.04999999-319.5 23.85-8.55 49.50000001-11.70000001 74.25000001-16.65 27.44999999-4.95 40.05-27 22.94999999-47.70000001-25.65-31.50000001-27.90000001-66.6-27-103.94999999 0.45-34.65 0.45-68.85 0-103.5 0-9.90000001 1.35000001-21.15-2.69999999-28.8-4.50000001-8.55-15.75-19.35-22.95-18.45-9 1.35000001-21.6 12.15-22.95000001 20.69999999-3.6 19.8-2.25 40.50000001-1.8 60.30000001 0.90000001 20.70000001-7.2 27.44999999-28.34999999 25.65000001-67.95-6.30000001-108.45 16.65-136.8 78.74999999-14.85 32.4-34.2 59.4-63.9 79.2-4.50000001 3.15-7.65 8.10000001-11.7 12.15 0.90000001 0.45 1.8 2.25 3.14999999 4.5z"  horiz-adv-x="1024" />

    
    <glyph glyph-name="aite-copy" unicode="&#59121;" d="M695.52355556 611.21422223c-15.92888889-186.368-23.89333333-282.96533334-23.89333335-290.01955556 0-68.60800001 19.56977778-102.85511111 58.82311112-102.85511112 36.40888889 0 66.44622222 19.91111113 90.2257778 59.61955556s35.61244446 91.47733333 35.61244442 155.30666668c0 93.18400001-29.46844446 169.30133333-88.5191111 228.2382222-59.05066668 59.05066668-140.74311113 88.51911111-245.07733334 88.51911114-101.83111113 0-186.02666668-35.61244446-252.70044445-106.72355557-66.67377778-71.11111113-100.01066668-160.19911111-100.01066666-267.03644445 0-104.67555555 31.2888889-188.87111111 93.75288889-252.70044445 62.57777778-63.82933334 147.68355555-95.68711113 255.54488889-95.68711111 83.62666668 0 155.98933334 14.22222223 217.31555555 42.5528889v-67.92533335c-59.61955555-25.48622222-134.37155556-38.22933333-224.02844446-38.22933333-125.38311111 0-226.64533333 37.77422222-303.67288887 113.2088889-77.02755556 75.43466668-115.59822222 174.08-115.59822222 296.04977778 0 126.06577778 40.39111113 230.74133333 121.28711111 314.14044445 80.89600001 83.39911113 184.43377779 125.15555555 310.84088889 125.15555554 118.10133333 0 215.38133334-34.70222223 292.18133333-104.10666666 76.68622222-69.40444445 115.14311111-159.744 115.14311111-271.13244446 0-82.94400001-20.59377779-150.64177778-61.78133335-203.20711109-41.18755555-52.45155556-91.36355556-78.73422222-150.75555554-78.73422224-75.66222223 0-113.77777778 40.04977778-114.34666667 120.14933335h-2.38933333c-25.48622222-80.09955555-74.2968889-120.14933333-146.43200001-120.14933333-46.87644445 0-84.99200001 17.18044446-114.1191111 51.65511112C313.91288887 241.77777777999995 299.23555555 288.65422221999995 299.23555555 348.04622222c0 77.824 20.13866668 142.44977778 60.30222223 193.87733333 40.16355556 51.31377779 92.04622223 77.02755556 155.53422223 77.02755558 24.91733334 0 46.99022223-6.25777779 66.33244444-18.88711112 19.34222222-12.62933334 31.51644446-28.33066668 36.63644444-47.104h1.93422221c0.34133334 1.25155556 2.048 20.70755555 5.23377777 58.36799999h70.31466667zM377.28711111 347.59111111000004c0-38.57066668 8.192-69.632 24.68977779-93.07022222 16.384-23.43822222 39.82222222-35.15733334 70.08711109-35.15733335 41.75644446 0 74.75200001 20.93511111 98.8728889 62.69155557 24.12088889 41.75644446 36.18133333 96.93866667 36.18133333 165.54666668 0 72.13511111-30.26488889 108.20266668-90.90844445 108.20266666-41.18755555 0-74.63822222-20.13866668-100.23822222-60.30222223-25.82755556-40.27733333-38.68444445-89.54311113-38.68444444-147.91111111z"  horiz-adv-x="1024" />

    
    <glyph glyph-name="home" unicode="&#59035;" d="M173.92597962 484.56045639v-437.00850367h209.88780509V286.2717142c0 8.48388603 6.89315739 15.35494995 15.37704342 15.35494996h234.3673512c8.50597947 0 15.3770434-6.87106393 15.37704341-15.35494996v-238.71976148h187.79435195V485.97443739l-330.51805943 260.76902776-332.28553564-262.16091531z m-66.28035951-52.29520365l-54.34989479-42.86129914a22.09345317 22.09345317 0 0 0-31.01920825 3.66751322l-13.67584752 17.34336073a22.09345317 22.09345317 0 0 0 3.66751322 31.01920825l480.24539153 378.9248153a22.09345317 22.09345317 0 0 0 27.39588193 0l480.24539154-378.90272184a22.09345317 22.09345317 0 0 0 3.66751322-31.04130171l-13.69794097-17.34336073a22.09345317 22.09345317 0 0 0-31.01920825-3.66751322l-56.09527758 44.2531867v-403.86832393a48.51722316 48.51722316 0 0 0-48.51722316-48.51722317H156.16284327a48.51722316 48.51722316 0 0 0-48.51722316 48.51722317V432.26525274z m342.44852411-373.66657344h132.56071901v176.74762536h-132.56071901v-176.74762536z"  horiz-adv-x="1024" />

    
    <glyph glyph-name="music" unicode="&#59039;" d="M823.29114548 569.53969778L677.32548267 311.18222221999997a155.34459259 155.34459259 0 1 0-2.00006164 112.00345126l110.1781523 194.97688177A358.26346667 358.26346667 0 0 1 521.70903703 733.52533333C323.29515615 733.52533333 162.47466667 572.70484385 162.47466667 374.29096297S323.29515615 15.056592590000037 521.70903703 15.056592590000037C720.10349985 15.056592590000037 880.94340741 175.89650014999995 880.94340741 374.29096297c0 72.00221867-21.16570075 139.03341037-57.65226193 195.24873481zM619.12951467 322.89132089l-0.33010726 0.17476266 2.00006162 3.53408948a97.09037037 97.09037037 0 1 1-1.66995436-3.72827021zM939.19762963 374.29096297C939.19762963 143.72075141000005 752.27924859-43.19762963000005 521.70903703-43.19762963000005S104.22044445 143.72075141000005 104.22044445 374.29096297 291.13882548 791.7795555499999 521.70903703 791.7795555499999 939.19762963 604.8611745200001 939.19762963 374.29096297z"  horiz-adv-x="1024" />

    
    <glyph glyph-name="locking" unicode="&#59038;" d="M325.58648889 539.34459259v84.65244666C325.58648889 731.3090838200001 408.64406439 818.96485925 512 818.96485925s186.41351111-87.65577545 186.41351111-194.96782V539.34459259h186.41351111a20.71261235 20.71261235 0 0 0 20.71261235-20.71261234v-538.527921a20.71261235 20.71261235 0 0 0-20.71261235-20.71261234H139.17297778a20.71261235 20.71261235 0 0 0-20.71261235 20.71261234v538.527921a20.71261235 20.71261235 0 0 0 20.71261235 20.71261234h186.41351111z m62.13783703 0h248.55134816v84.65244666C636.27567408 697.7339392 580.24805769 756.82702222 512 756.82702222s-124.27567408-59.11379564-124.27567408-132.82998297V539.34459259z m-207.12612345-62.13783704v-455.6774716h662.80359506v455.6774716H180.59820247z m362.47071605-186.4135111v-103.56306173a20.71261235 20.71261235 0 0 0-20.71261235-20.71261235h-20.71261234a20.71261235 20.71261235 0 0 0-20.71261235 20.71261235v103.56306173a20.71261235 20.71261235 0 0 0 20.71261235 20.71261235h20.71261234a20.71261235 20.71261235 0 0 0 20.71261235-20.71261235z"  horiz-adv-x="1024" />

    
    <glyph glyph-name="relationship" unicode="&#59040;" d="M409.1618797 385.07705584a194.42929209 194.42929209 0 0 0-95.27801679 167.31648253V624.47342933a194.51214254 194.51214254 0 0 0 389.02428509 0v-72.05917834a194.40857947 194.40857947 0 0 0-93.26889341-166.11515102c34.13438515-7.66366657 66.92245049-19.26272948 97.80495551-34.34151127a19.05560336 19.05560336 0 0 0 0.31068919-34.09295992l-26.63641948-13.64961153a20.71261235 20.71261235 0 0 0-17.54358266-0.62137837c-9.61065213 4.08038463-17.19146825 7.10442604-22.76316097 9.11354942A383.39045452 383.39045452 0 0 1 159.88559013 103.17840180999997l0.02071261-68.62088469h421.70878736a20.71261235 20.71261235 0 0 0 15.07878178-6.52447289l23.07385016-24.54444564a18.43422498 18.43422498 0 0 0-13.4217728-31.0689185H118.46036543a20.71261235 20.71261235 0 0 0-20.71261234 20.71261234v103.56306172l0.41425224 0.06213785c0 6.83516208-0.04142523 13.79459982 0.43496486 20.836888 0.47639008 7.00086297 5.71668101 13.73246198 8.80286024 20.44334839a445.88040596 445.88040596 0 0 0 301.76204927 247.01861484zM508.39600545 756.82702222a132.3743055 132.3743055 0 0 1-132.3743055-132.37430551v-72.05917834a132.3743055 132.3743055 0 0 1 264.748611 0V624.47342933A132.3743055 132.3743055 0 0 1 508.41671806 756.82702222z m344.40931809-623.86388385c8.69929718 8.53359629 13.56676109 19.7805448 13.56676108 31.75243473 0 25.10368617-21.60325467 45.91986157-48.77820207 45.91986157-18.9520403 0-35.79139413-10.2320305-43.86931295-25.80791499-11.59906291-22.34890871-43.55862377-22.34890871-55.15768667 0-8.07791882 15.57588448-24.91727265 25.80791499-43.86931296 25.80791499-27.19566 0-48.77820208-20.81617541-48.77820207-45.91986157 0-11.95117733 4.84675129-23.15670061 13.50462325-31.69029689 1.57415854-1.55344592 2.92047835-3.21045491 4.08038464-4.95031434l99.29626358-101.86462752 107.64344636 104.14301487c0.72494143 0.89064233 1.5120207 1.76057205 2.36123781 2.58907654zM563.78153086 164.69486048c0 59.94230013 49.91739575 108.05769861 110.91603911 108.05769861 26.76069515 0 51.86438131-9.32067555 71.4585126-25.37295012a112.55233549 112.55233549 0 0 0 71.43779998 25.37295012c60.99864336 0 110.91603911-48.11539849 110.9160391-108.05769861a106.25570133 106.25570133 0 0 0-28.93551943-72.78411978c-0.95278017-1.24275675-1.98841078-2.42337565-3.16902969-3.5418567l-132.64356947-128.35605872a31.06891852 31.06891852 0 0 0-43.84860034 0.62137837l-125.10417856 128.37677132a31.73172211 31.73172211 0 0 0-3.93539634 4.88817652 106.15213827 106.15213827 0 0 0-27.09209696 70.79570899z"  horiz-adv-x="1024" />

    
    <glyph glyph-name="wifi" unicode="&#59044;" d="M461.38389879 95.23856708000005a103.97179061 103.97179061 0 0 0 129.02576651 1.43607447c1.94422388-1.50235481 3.38029834-7.06990501 2.56284057-7.8873628a13993.33043348 13993.33043348 0 0 0-59.78488429-61.13258492l-0.13256072-0.11046725a8.90366162 8.90366162 0 0 0-12.59326829 0.13256072 24884.12142538 24884.12142538 0 0 1-60.64652896 61.92794923c-0.61861669 0.61861669 0.26512144 4.59543826 1.54654172 5.63383055z m-144.95514624 167.24744049c55.38828709 41.60197232 124.25358062 66.2803595 198.88526542 66.28035951 77.98988969 0 149.66105177-26.93191941 206.26447879-72.00256388a18.62478102 18.62478102 0 0 0 1.76747625-27.52844265l-19.4864257-20.03876203a20.03876202 20.03876202 0 0 0-26.62261106-1.87794351A263.97257845 263.97257845 0 0 1 515.31401797 262.48600756999997a263.92839155 263.92839155 0 0 1-156.06815318-50.81494229 22.09345317 22.09345317 0 0 0-29.16335818 2.62912093l-16.28287498 17.23289348a20.81203289 20.81203289 0 0 0 2.62912092 30.93083443z m-137.31081145 144.93305279A528.05562419 528.05562419 0 0 0 515.31401797 527.6074456c133.00258806 0 254.58286085-48.95909222 347.66257908-129.86531772a16.43752915 16.43752915 0 0 0 0.99420539-23.86092943l-22.80044368-23.46324726a17.23289347 17.23289347 0 0 0-23.59580799-1.03839231 462.15085339 462.15085339 0 0 1-302.23843935 111.9475272 462.04038611 462.04038611 0 0 1-292.45103958-103.75085606 22.09345317 22.09345317 0 0 0-30.0029094 1.96631732l-15.73053866 16.65846369a21.38646267 21.38646267 0 0 0 1.98841078 31.21804933z m-146.50168795 151.00875241A737.25853223 737.25853223 0 0 0 515.31401797 737.4952507a737.34690606 737.34690606 0 0 0 490.91652941-186.20362331 20.72365907 20.72365907 0 0 0 1.10467267-29.98081594l-16.41543572-16.87939822a22.09345317 22.09345317 0 0 0-30.48896536-1.12676612A671.26538763 671.26538763 0 0 1 515.31401797 671.2148912a671.19910726 671.19910726 0 0 1-437.56084-161.37058196 20.54691145 20.54691145 0 0 0-28.30171351 1.52444827l-18.29337922 19.35386498a19.17711735 19.17711735 0 0 0 1.43607445 27.70519028z"  horiz-adv-x="1024" />

    
    <glyph glyph-name="bookresource" unicode="&#59099;" d="M242.7360395 180.56072155000004a108.98976617 108.98976617 0 0 0 47.28689399 10.72913319h481.3403983V736.11440987H294.51757037a51.78153086 51.78153086 0 0 1-51.78153087-51.78153085v-503.77215747z m0.04142523-96.50006093A51.78153086 51.78153086 0 0 1 294.51757037 34.578229729999975h476.84576142v94.57378797h-481.3611109a47.28689398 47.28689398 0 0 1-47.22475616-45.09135708zM294.51757037-27.559607310000047h-4.49463688A109.42473102 109.42473102 0 0 0 180.59820247 84.08137323999995L180.59820247 86.35976058999995V684.3328790200001a113.9193679 113.9193679 0 0 0 113.9193679 113.91936789h518.27098611a20.71261235 20.71261235 0 0 0 20.71261235-20.71261234v-784.38662954a20.71261235 20.71261235 0 0 0-20.71261235-20.71261234H294.51757037z m68.4344712 611.47774168v20.71261233a20.71261235 20.71261235 0 0 0 20.71261233 20.71261235h246.74935088a20.71261235 20.71261235 0 0 0 20.71261234-20.71261235v-20.71261233a20.71261235 20.71261235 0 0 0-20.71261234-20.71261235H383.6646539a20.71261235 20.71261235 0 0 0-20.71261233 20.71261235z"  horiz-adv-x="1024" />

    
    <glyph glyph-name="faimlyalbum" unicode="&#59101;" d="M708.72560582 503.65421463a67.2175147 67.2175147 0 1 1-134.40989193 0.02513746 67.2175147 67.2175147 0 0 1 134.40989193 0z m75.41232015 0a142.62983485 142.62983485 0 1 0-285.23453223 0 142.62983485 142.62983485 0 0 0 285.23453223 0zM178.60213261 127.95003566000003l-18.47601843 17.04318433a25.13744005 25.13744005 0 0 0-1.40769663 35.5192028l201.65254407 218.49462892a25.13744005 25.13744005 0 0 0 36.24818855 0.70384832l178.80261108-178.97857315 111.38399685 101.73121988a25.13744005 25.13744005 0 0 0 34.84049192-0.90494784l138.88435626-140.69425195a25.13744005 25.13744005 0 0 0-0.2513744-35.56947769l-17.84758243-17.6464829a25.13744005 25.13744005 0 0 0-35.56947766 0.25137439l-104.89853733 106.25595909-111.18289734-101.53012037a25.13744005 25.13744005 0 0 0-34.73994215 0.8043981l-175.76098083 175.96208035-166.15847873-180.00920821a25.13744005 25.13744005 0 0 0-35.5192028-1.43283407zM84.66351917 34.2627966h833.9094362V710.78672065H84.66351917v-676.52392405zM993.98527552 761.06160075v-777.07368428a25.13744005 25.13744005 0 0 0-25.13744005-25.13744004H34.38863905a25.13744005 25.13744005 0 0 0-25.13744004 25.13744004V761.06160075a25.13744005 25.13744005 0 0 0 25.13744004 25.13744005h934.45919642a25.13744005 25.13744005 0 0 0 25.13744005-25.13744005z"  horiz-adv-x="1024" />

    
    <glyph glyph-name="search" unicode="&#59105;" d="M722.6861037 203.97503525000002l188.2970643-188.31648236a19.41807408 19.41807408 0 0 0 0-27.45715674l-13.72857837-13.74799645a19.41807408 19.41807408 0 0 0-27.45715674 0l-192.39427792 192.413696a351.70015763 351.70015763 0 0 0-200.4333606-62.33201778C281.81814992 104.55449599999997 123.63851852 262.75354547999996 123.63851852 457.88577185 123.63851852 653.01799822 281.81814992 811.1976296299999 476.96979437 811.1976296299999c195.13222637 0 353.31185778-158.17963141 353.31185778-353.33127585 0-99.65355615-41.24398933-189.65632948-107.61496652-253.89131853z m-245.71630933-41.16631703c162.95647763 0 295.05763555 132.10115792 295.05763555 295.05763556C772.02742992 620.84224948 639.926272 752.94340741 476.96979437 752.94340741 313.99389867 752.94340741 181.89274075 620.84224948 181.89274075 457.86635378c0-162.95647763 132.10115792-295.05763555 295.07705362-295.05763556z"  horiz-adv-x="1024" />

    
    <glyph glyph-name="instruction" unicode="&#59106;" d="M293.62692803 562.31487968v20.71261235a20.71261235 20.71261235 0 0 0 20.71261235 20.71261234h30.61324105a20.71261235 20.71261235 0 0 0 20.71261235-20.71261234v-20.71261235a20.71261235 20.71261235 0 0 0-20.71261235-20.71261234h-30.61324105a20.71261235 20.71261235 0 0 0-20.71261235 20.71261234z m129.6609533 0v20.71261235a20.71261235 20.71261235 0 0 0 20.71261234 20.71261234H690.74984453a20.71261235 20.71261235 0 0 0 20.71261236-20.71261234v-20.71261235a20.71261235 20.71261235 0 0 0-20.71261236-20.71261234H444.00049367a20.71261235 20.71261235 0 0 0-20.71261234 20.71261234z m-129.6609533-187.32486605v20.71261234a20.71261235 20.71261235 0 0 0 20.71261235 20.71261234h30.61324105a20.71261235 20.71261235 0 0 0 20.71261235-20.71261234v-20.71261234a20.71261235 20.71261235 0 0 0-20.71261235-20.71261235h-30.61324105a20.71261235 20.71261235 0 0 0-20.71261235 20.71261235z m129.6609533 0v20.71261234a20.71261235 20.71261235 0 0 0 20.71261234 20.71261234H690.74984453a20.71261235 20.71261235 0 0 0 20.71261236-20.71261234v-20.71261234a20.71261235 20.71261235 0 0 0-20.71261236-20.71261235H444.00049367a20.71261235 20.71261235 0 0 0-20.71261234 20.71261235z m-129.6609533-187.30415345v20.71261235a20.71261235 20.71261235 0 0 0 20.71261235 20.71261236h30.61324105a20.71261235 20.71261235 0 0 0 20.71261235-20.71261236v-20.71261235a20.71261235 20.71261235 0 0 0-20.71261235-20.71261234h-30.61324105a20.71261235 20.71261235 0 0 0-20.71261235 20.71261234z m129.6609533 0v20.71261235a20.71261235 20.71261235 0 0 0 20.71261234 20.71261236H690.74984453a20.71261235 20.71261235 0 0 0 20.71261236-20.71261236v-20.71261235a20.71261235 20.71261235 0 0 0-20.71261236-20.71261234H444.00049367a20.71261235 20.71261235 0 0 0-20.71261234 20.71261234zM180.59820247 736.11440987v-701.53618014h643.89297998V736.11440987H180.59820247z m685.31820468-763.67401718H139.17297778a20.71261235 20.71261235 0 0 0-20.71261235 20.71261234V777.53963457a20.71261235 20.71261235 0 0 0 20.71261235 20.71261234h726.74342937a20.71261235 20.71261235 0 0 0 20.71261235-20.71261234v-784.38662954a20.71261235 20.71261235 0 0 0-20.71261235-20.71261234z"  horiz-adv-x="1024" />

    
    <glyph glyph-name="respond" unicode="&#59107;" d="M263.02151175 260.22952956999995h-47.29766453l-163.43263759-92.68645474a23.56635005 23.56635005 0 0 0-35.1845606 20.50272454V761.06160075a23.56635005 23.56635005 0 0 0 23.56635004 23.56635003h744.9087586a23.56635005 23.56635005 0 0 0 23.56635007-23.56635003v-173.16554014h156.76336052a23.56635005 23.56635005 0 0 0 23.56635004-23.56635005v-573.76992459a23.56635005 23.56635005 0 0 0-35.82085208-20.12566293l-152.66281561 93.08708268H286.5878618a23.56635005 23.56635005 0 0 0-23.56635005 23.56635006v173.14197379z m0 70.69905012v233.40113087a23.56635005 23.56635005 0 0 0 23.56635005 23.56635005h451.8611958V713.9289006399999H87.80569917v-444.95625521l109.25359881 61.97950061h65.96221377z m70.69905015-196.73189018h487.11645548l97.94175078-59.69356468V517.19701046H333.7205619V134.19668951000006z"  horiz-adv-x="1024" />

    
    <glyph glyph-name="donework" unicode="&#59113;" d="M628.46490194 808.19430083c55.42805531 0 100.3455185-45.71871909 100.34551849-102.11299474l-0.02356635-45.90724988h183.18123891c38.01252262 0 69.04940563-30.2356271 71.24107619-68.3659815l0.11783175-4.26550936v-525.62387144C983.32700093 5.524418250000053 938.40953775-40.194300829999975 882.98148244-40.194300829999975H141.01851756C85.59046225-40.194300829999975 40.67299907 5.524418250000053 40.67299907 61.91869391V587.54256535c0 38.67238042 29.69360106 70.2984222 67.16409762 72.49009275l4.19481032 0.14139811H295.18957957v45.90724988C295.18957957 762.47558175 340.10704276 808.19430083 395.53509806 808.19430083h232.92980388zM913.3349413 329.93879300000003l-1.34328197-0.07069906-292.24630691 0.02356635v-8.90808032c0-54.74463117-42.32516468-99.44999719-95.46728405-102.01872936l-4.87823446-0.11783174h-14.75253513c-55.42805531 0-100.3455185 45.71871909-100.34551849 102.1365611l-0.02356635 8.90808032h-292.22274059l-1.3668483 0.04713271v-268.02009909c0-15.97798533 11.94813947-29.12800865 27.24270066-30.70695411l3.1107582-0.16496445h741.96296488c16.75567489 0 30.35345886 13.83344748 30.35345885 30.87191856l-0.02356634 268.02009909z m-393.93510739 73.95120643h-14.75253513c-16.75567489 0-30.35345886-13.83344748-30.35345885-30.87191854v-52.03450092c0-17.06203744 13.59778399-30.87191856 30.35345885-30.87191855h14.75253513c16.75567489 0 30.35345886 13.80988113 30.35345887 30.87191855v52.03450092c0 17.03847107-13.59778399 30.87191856-30.35345887 30.87191854z m363.62878123 185.01941423H140.99495121c-16.75567489 0-30.35345886-13.80988113-30.35345885-30.87191857v-155.5379103c0-0.49489334 0.2827962-0.94265401 0.68342415-1.17831749l0.7069905-0.21209716h296.06405564c12.01883853 42.74935898 50.66765259 74.0219055 96.50420344 74.0219055h14.75253513c45.83655085 0 84.50893126-31.27254652 96.50420344-73.99833916h296.08762199c0.49489334 0 0.94265401 0.25922986 1.1783175 0.68342415l0.1885308 0.70699051v155.5379103c0 17.03847107-13.59778399 30.87191856-30.35345886 30.87191857z m-254.51658052 148.04381099h-232.9533702l-3.11075821-0.16496445a30.68338777 30.68338777 0 0 1-27.21913431-30.70695411v-45.93081624h293.56602254l0.02356635 45.93081624c0 17.03847107-13.57421762 30.87191856-30.3298925 30.87191856z"  horiz-adv-x="1024" />

    
    <glyph glyph-name="like" unicode="&#59115;" d="M523.78317502 713.6461044499999l-14.06911097 14.06911097-5.89158752 5.72662307c-107.9338832 101.7594995-277.54090449 99.4028645-382.67039205-5.72662307-107.29759175-107.29759175-107.29759175-281.26438781 0-388.56197957l385.96968107-385.96968106a23.56635005 23.56635005 0 0 1 33.32281895 0l385.96968107 385.96968106c107.29759175 107.29759175 107.29759175 281.26438781 0 388.56197957-107.29759175 107.29759175-281.26438781 107.29759175-388.56197959 0l-14.06911096-14.06911097z m-68.83730848-31.27254651l5.13746432-5.01963254 63.69984416-63.67627786 64.05333943 64.05333944a204.06102506 204.06102506 0 0 0 288.59352267 0l4.68970366-4.85466811a204.06102506 204.06102506 0 0 0-4.71327001-283.73885456L523.78317502 36.51416857000004 171.13631293 389.13746431a204.06102506 204.06102506 0 0 0 279.21411535 297.4073376l4.59543826-4.17124397z"  horiz-adv-x="1040" />

    
    <glyph glyph-name="menu" unicode="&#59116;" d="M459.17455347 342.68524257a22.09345317 22.09345317 0 0 0 22.09345318-22.09345316v-344.83461707a22.09345317 22.09345317 0 0 0-22.09345318-22.09345316H114.31784297a22.09345317 22.09345317 0 0 0-22.09345318 22.09345316V320.59178941000005a22.09345317 22.09345317 0 0 0 22.09345318 22.09345316h344.8567105z m445.71332422 0a22.09345317 22.09345317 0 0 0 22.09345318-22.09345316v-344.83461707a22.09345317 22.09345317 0 0 0-22.09345318-22.09345316h-344.87880395a22.09345317 22.09345317 0 0 0-22.09345317 22.09345316V320.59178941000005a22.09345317 22.09345317 0 0 0 22.09345317 22.09345316h344.87880395z m-489.90023054-66.28035951H158.5047493v-256.46080437h256.48289785V276.40488306z m445.71332421 0h-256.50499129v-256.46080437h256.50499129V276.40488306zM739.18697893 803.77561021a209.8878051 209.8878051 0 1 0 0-419.77561021 209.8878051 209.8878051 0 0 0 0 419.77561021z m-280.01242546-15.37704342a22.09345317 22.09345317 0 0 0 22.09345318-22.09345316v-344.83461705a22.09345317 22.09345317 0 0 0-22.09345318-22.09345318H114.31784297a22.09345317 22.09345317 0 0 0-22.09345318 22.09345318V766.30511363a22.09345317 22.09345317 0 0 0 22.09345318 22.09345316h344.8567105zM739.18697893 737.4952507a143.6074456 143.6074456 0 1 1 0-287.2148912 143.6074456 143.6074456 0 0 1 0 287.2148912z m-324.19933178-15.3770434H158.5047493v-256.46080439h256.48289785V722.1182073z"  horiz-adv-x="1024" />

    
    <glyph glyph-name="setting" unicode="&#59120;" d="M411.56316189 803.77561021a22.09345317 22.09345317 0 0 1-22.09345316-22.09345318v-93.85298905a331.04830227 331.04830227 0 0 1-64.20357492-37.13909477l-81.34809457 46.94858796a22.09345317 22.09345317 0 0 1-30.17965702-8.08620384l-110.46726584-191.32930444a22.09345317 22.09345317 0 0 1 8.08620387-30.17965703l81.3260011-46.94858799a335.02512384 335.02512384 0 0 1 0-74.18981574l-81.30390765-46.94858799a22.09345317 22.09345317 0 0 1-9.27925034-27.85984444l1.17095302-2.31981259 110.46726584-191.32930444a22.09345317 22.09345317 0 0 1 30.17965702-8.08620384l81.34809457 46.94858796a331.04830227 331.04830227 0 0 1 64.20357492-37.11700131V-13.682157029999985a22.09345317 22.09345317 0 0 1 22.09345316-22.09345318h220.93453169a22.09345317 22.09345317 0 0 1 22.09345318 22.09345318v93.85298905a331.04830227 331.04830227 0 0 1 64.22566835 37.13909477l81.34809458-46.94858796a22.09345317 22.09345317 0 0 1 30.17965702 8.08620384l110.46726583 191.32930444a22.09345317 22.09345317 0 0 1-5.92104544 28.76567604l-2.16515841 1.41398099-81.32600112 46.94858799a335.02512384 335.02512384 0 0 1 0 74.18981574l81.30390767 46.94858799a22.09345317 22.09345317 0 0 1 9.27925033 27.85984444l-1.17095303 2.31981259-110.46726583 191.32930444a22.09345317 22.09345317 0 0 1-30.17965702 8.08620384l-81.34809458-46.94858796a331.04830227 331.04830227 0 0 1-64.20357491 37.11700131V781.68215703a22.09345317 22.09345317 0 0 1-22.09345316 22.09345318h-220.93453169z m44.18690634-66.28035951h132.56071901v-93.03553131l39.7682157-17.36545418c18.16081851-7.95364315 35.39371198-17.91779053 51.34518517-29.7156945l34.90765601-25.8051533 80.70738443 46.57299926 66.28035949-114.79758265-80.59691714-46.50671893 4.79427932-43.08223367a268.74476434 268.74476434 0 0 0 0-59.51976284l-4.79427932-43.08223367 80.59691714-46.50671893-66.28035949-114.79758265-80.68529097 46.57299926-34.92974947-25.8051533c-15.95147318-11.79790399-33.18436665-21.76205138-51.34518517-29.7156945l-39.7682157-17.36545418V30.504749299999958h-132.56071901v93.03553131l-39.74612225 17.36545418c-18.16081851 7.95364315-35.39371198 17.91779053-51.34518516 29.7156945l-34.907656 25.8051533-80.70738444-46.57299926-66.28035949 114.79758265 80.59691715 46.50671893-4.79427933 43.08223367a268.74476434 268.74476434 0 0 0 0 59.51976284l4.79427933 43.08223367-80.59691715 46.50671893 66.28035949 114.79758265 80.68529098-46.57299926 34.92974946 25.8051533a264.76794277 264.76794277 0 0 0 51.34518516 29.7156945l39.76821571 17.36545418V737.4952507z m65.28615412-198.84107852a154.65417218 154.65417218 0 1 1 0-309.30834436 154.65417218 154.65417218 0 0 1 0 309.30834436z m0-66.2803595a88.37381268 88.37381268 0 1 0 0-176.74762536 88.37381268 88.37381268 0 0 0 0 176.74762536z"  horiz-adv-x="1024" />

    


  </font>
</defs>
</svg>
